<svg xmlns="http://www.w3.org/2000/svg" width="758" height="758" viewBox="0 0 758 758" fill="none">
<rect x="547" y="240.625" width="132" height="271" fill="#DAF2FF"/>
<rect x="89" y="163.625" width="424" height="433" fill="#DAF2FF"/>
<path d="M516.326 262.493C500.719 271.856 495.662 292.099 505.025 307.705C514.388 323.312 534.63 328.369 550.237 319.006L516.326 262.493ZM698.047 191.891H731C731 180.019 724.616 169.064 714.282 163.215C703.952 157.365 691.272 157.525 681.091 163.634L698.047 191.891ZM698.047 565.359L681.091 593.616C691.272 599.723 703.952 599.885 714.282 594.033C724.616 588.185 731 577.231 731 565.359H698.047ZM550.237 438.244C534.63 428.881 514.388 433.938 505.025 449.545C495.662 465.151 500.719 485.393 516.326 494.756L550.237 438.244ZM550.237 319.006L715.002 220.148L681.091 163.634L516.326 262.493L550.237 319.006ZM665.094 191.891V565.359H731V191.891H665.094ZM715.002 537.103L550.237 438.244L516.326 494.756L681.091 593.616L715.002 537.103ZM148.828 180.906H434.422V115H148.828V180.906ZM489.344 235.828V521.422H555.25V235.828H489.344ZM434.422 576.344H148.828V642.25H434.422V576.344ZM93.9062 521.422V235.828H28V521.422H93.9062ZM148.828 576.344C118.495 576.344 93.9062 551.756 93.9062 521.422H28C28 588.154 82.0967 642.25 148.828 642.25V576.344ZM489.344 521.422C489.344 551.756 464.756 576.344 434.422 576.344V642.25C501.154 642.25 555.25 588.154 555.25 521.422H489.344ZM434.422 180.906C464.756 180.906 489.344 205.495 489.344 235.828H555.25C555.25 169.097 501.154 115 434.422 115V180.906ZM148.828 115C82.0967 115 28 169.097 28 235.828H93.9062C93.9062 205.495 118.495 180.906 148.828 180.906V115Z" fill="#107CB9"/>
</svg>
