<svg xmlns="http://www.w3.org/2000/svg" width="3339" height="834" viewBox="0 0 3339 834" fill="none">
<path d="M1131.4 672.477C1173.67 672.477 1210.18 664.904 1240.92 649.758C1271.67 634.613 1295.4 613.476 1312.13 586.349C1329.09 558.996 1337.56 527.235 1337.56 491.066V174.699H1230.41V481.233C1230.41 501.804 1226.57 519.662 1218.88 534.808C1211.2 549.728 1200.01 561.37 1185.31 569.734C1170.62 577.872 1152.65 581.941 1131.4 581.941C1110.38 581.941 1092.52 577.872 1077.82 569.734C1063.13 561.37 1051.83 549.728 1043.92 534.808C1036.23 519.662 1032.39 501.804 1032.39 481.233V174.699H925.235V491.066C925.235 527.235 933.599 558.996 950.328 586.349C967.282 613.702 991.244 634.952 1022.21 650.097C1053.18 665.017 1089.58 672.477 1131.4 672.477ZM1392.01 782.68H1495.77V601.608H1497.8C1504.36 616.076 1513.06 628.509 1523.91 638.908C1534.99 649.306 1547.76 657.331 1562.23 662.983C1576.92 668.634 1592.97 671.46 1610.38 671.46C1640.9 671.46 1667.12 663.887 1689.05 648.741C1710.97 633.595 1727.81 611.894 1739.57 583.637C1751.32 555.379 1757.2 521.471 1757.2 481.911V481.572C1757.2 441.786 1751.21 407.764 1739.23 379.507C1727.48 351.024 1710.52 329.322 1688.37 314.402C1666.21 299.257 1639.77 291.684 1609.02 291.684C1591.84 291.684 1576.02 294.622 1561.55 300.5C1547.31 306.151 1534.76 314.289 1523.91 324.914C1513.29 335.539 1504.7 348.311 1498.14 363.231H1495.77V299.144H1392.01V782.68ZM1573.76 586.01C1558.16 586.01 1544.48 581.828 1532.73 573.464C1520.97 564.874 1511.7 552.78 1504.92 537.182C1498.37 521.584 1495.09 503.16 1495.09 481.911V481.572C1495.09 460.096 1498.37 441.56 1504.92 425.962C1511.7 410.364 1520.97 398.383 1532.73 390.019C1544.71 381.428 1558.38 377.133 1573.76 377.133C1589.58 377.133 1603.26 381.315 1614.79 389.68C1626.54 398.044 1635.58 410.025 1641.91 425.623C1648.47 441.221 1651.75 459.87 1651.75 481.572V481.911C1651.75 503.16 1648.58 521.584 1642.25 537.182C1635.92 552.78 1626.88 564.874 1615.13 573.464C1603.6 581.828 1589.81 586.01 1573.76 586.01ZM1799.1 664H1894.38V338.817H1943.89L1837.08 188.263L2026.29 664H2092.07L2281.62 188.263L2174.81 338.817H2224.31V664H2319.6V174.699H2195.49L2060.53 519.21H2058.16L1923.2 174.699H1799.1V664ZM2542.23 671.46C2568.9 671.46 2592.07 668.069 2611.74 661.287C2631.63 654.28 2648.25 645.011 2661.58 633.482C2675.15 621.953 2685.77 609.407 2693.46 595.844C2701.37 582.054 2706.79 568.604 2709.73 555.493L2710.41 551.423H2615.81L2615.13 553.458C2612.87 560.014 2608.69 566.456 2602.58 572.786C2596.7 579.116 2588.91 584.428 2579.19 588.723C2569.46 593.018 2557.82 595.166 2544.26 595.166C2527.53 595.166 2513.18 591.436 2501.2 583.976C2489.21 576.516 2479.95 565.891 2473.39 552.102C2466.83 538.312 2463.56 521.697 2463.56 502.256V461.905C2463.56 442.012 2466.83 425.057 2473.39 411.042C2479.95 397.026 2488.88 386.402 2500.18 379.168C2511.71 371.934 2525.04 368.317 2540.19 368.317C2555.11 368.317 2568.22 371.821 2579.52 378.829C2590.83 385.837 2599.64 396.348 2605.97 410.364C2612.3 424.153 2615.47 441.334 2615.47 461.905V501.917L2664.64 441.899H2412.36V505.986H2713.46V474.451C2713.46 437.604 2706.34 405.504 2692.1 378.151C2677.86 350.798 2657.63 329.548 2631.4 314.402C2605.18 299.257 2574.1 291.684 2538.16 291.684C2502.21 291.684 2471.02 299.483 2444.57 315.081C2418.12 330.453 2397.66 352.38 2383.19 380.863C2368.73 409.347 2361.49 443.029 2361.49 481.911V482.25C2361.49 521.132 2368.73 554.814 2383.19 583.298C2397.66 611.555 2418.35 633.369 2445.25 648.741C2472.37 663.887 2504.7 671.46 2542.23 671.46ZM2914.39 671.46C2941.07 671.46 2964.24 668.069 2983.9 661.287C3003.8 654.28 3020.41 645.011 3033.75 633.482C3047.31 621.953 3057.94 609.407 3065.62 595.844C3073.54 582.054 3078.96 568.604 3081.9 555.493L3082.58 551.423H2987.97L2987.29 553.458C2985.03 560.014 2980.85 566.456 2974.75 572.786C2968.87 579.116 2961.07 584.428 2951.35 588.723C2941.63 593.018 2929.99 595.166 2916.43 595.166C2899.7 595.166 2885.34 591.436 2873.36 583.976C2861.38 576.516 2852.11 565.891 2845.56 552.102C2839 538.312 2835.72 521.697 2835.72 502.256V461.905C2835.72 442.012 2839 425.057 2845.56 411.042C2852.11 397.026 2861.04 386.402 2872.34 379.168C2883.87 371.934 2897.21 368.317 2912.36 368.317C2927.28 368.317 2940.39 371.821 2951.69 378.829C2962.99 385.837 2971.81 396.348 2978.14 410.364C2984.47 424.153 2987.63 441.334 2987.63 461.905V501.917L3036.8 441.899H2784.52V505.986H3085.63V474.451C3085.63 437.604 3078.51 405.504 3064.27 378.151C3050.03 350.798 3029.79 329.548 3003.57 314.402C2977.35 299.257 2946.27 291.684 2910.32 291.684C2874.38 291.684 2843.18 299.483 2816.73 315.081C2790.29 330.453 2769.83 352.38 2755.36 380.863C2740.89 409.347 2733.66 443.029 2733.66 481.911V482.25C2733.66 521.132 2740.89 554.814 2755.36 583.298C2769.83 611.555 2790.51 633.369 2817.41 648.741C2844.54 663.887 2876.87 671.46 2914.39 671.46ZM3266.55 671.46C3277.4 671.46 3287.01 671.008 3295.37 670.104C3303.74 669.425 3310.75 668.634 3316.4 667.73V592.453C3313.23 592.679 3309.95 593.018 3306.56 593.47C3303.17 593.696 3299.22 593.809 3294.7 593.809C3279.78 593.809 3268.59 590.531 3261.13 583.976C3253.67 577.42 3249.94 565.778 3249.94 549.05V376.794H3316.4V299.144H3249.94V211.32H3145.5V299.144H3094.97V376.794H3145.5V560.918C3145.5 600.478 3155.33 628.848 3175 646.028C3194.89 662.983 3225.41 671.46 3266.55 671.46Z" fill="white"/>
<path d="M488.326 300.868C472.719 310.231 467.662 330.474 477.025 346.08C486.388 361.687 506.63 366.744 522.237 357.381L488.326 300.868ZM670.047 230.266H703C703 218.394 696.616 207.439 686.282 201.59C675.952 195.74 663.272 195.9 653.091 202.009L670.047 230.266ZM670.047 603.734L653.091 631.991C663.272 638.098 675.952 638.26 686.282 632.408C696.616 626.56 703 615.606 703 603.734H670.047ZM522.237 476.619C506.63 467.256 486.388 472.313 477.025 487.92C467.662 503.526 472.719 523.768 488.326 533.131L522.237 476.619ZM522.237 357.381L687.002 258.523L653.091 202.009L488.326 300.868L522.237 357.381ZM637.094 230.266V603.734H703V230.266H637.094ZM687.002 575.478L522.237 476.619L488.326 533.131L653.091 631.991L687.002 575.478ZM120.828 219.281H406.422V153.375H120.828V219.281ZM461.344 274.203V559.797H527.25V274.203H461.344ZM406.422 614.719H120.828V680.625H406.422V614.719ZM65.9062 559.797V274.203H0V559.797H65.9062ZM120.828 614.719C90.4954 614.719 65.9062 590.131 65.9062 559.797H0C0 626.529 54.0967 680.625 120.828 680.625V614.719ZM461.344 559.797C461.344 590.131 436.756 614.719 406.422 614.719V680.625C473.154 680.625 527.25 626.529 527.25 559.797H461.344ZM406.422 219.281C436.756 219.281 461.344 243.87 461.344 274.203H527.25C527.25 207.472 473.154 153.375 406.422 153.375V219.281ZM120.828 153.375C54.0967 153.375 0 207.472 0 274.203H65.9062C65.9062 243.87 90.4954 219.281 120.828 219.281V153.375Z" fill="#DDF4FF"/>
</svg>
