<svg width="7688" height="1848" viewBox="0 0 7688 1848" fill="none" xmlns="http://www.w3.org/2000/svg">
<rect width="1847.52" height="1847.52" rx="563.267" fill="url(#paint0_linear_509_4887)"/>
<rect width="1847.52" height="1847.52" rx="563.907" fill="url(#paint1_linear_509_4887)"/>
<g clip-path="url(#clip0_509_4887)">
<path d="M1185.35 814.736L1415.27 685.911C1424.75 681.414 1435.3 679.291 1445.89 679.743C1456.48 680.196 1466.78 683.21 1475.8 688.498C1484.83 693.786 1492.27 701.174 1497.44 709.96C1502.61 718.747 1505.32 728.64 1505.33 738.701V1138.11C1505.32 1148.17 1502.61 1158.06 1497.44 1166.85C1492.27 1175.64 1484.83 1183.02 1475.8 1188.31C1466.78 1193.6 1456.48 1196.61 1445.89 1197.07C1435.3 1197.52 1424.75 1195.4 1415.27 1190.9L1185.35 1055.39V814.736Z" fill="white" stroke="white" stroke-width="45.0614" stroke-linecap="round" stroke-linejoin="round"/>
<path d="M966.19 590.305H469.013C400.367 590.305 344.719 642.086 344.719 705.962V1168.59C344.719 1232.47 400.367 1284.25 469.013 1284.25H966.19C1034.84 1284.25 1090.48 1232.47 1090.48 1168.59V705.962C1090.48 642.086 1034.84 590.305 966.19 590.305Z" fill="white" stroke="white" stroke-width="45.0614" stroke-linecap="round" stroke-linejoin="round"/>
</g>
<path d="M3045.35 399.542H3266.75V1079.58C3266.75 1155.93 3248.51 1222.74 3212.04 1280.01C3175.9 1337.27 3125.28 1381.93 3060.18 1413.97C2995.07 1445.67 2919.23 1461.52 2832.65 1461.52C2745.73 1461.52 2669.71 1445.67 2604.61 1413.97C2539.5 1381.93 2488.88 1337.27 2452.75 1280.01C2416.62 1222.74 2398.55 1155.93 2398.55 1079.58V399.542H2619.95V1060.66C2619.95 1100.54 2628.64 1135.99 2646.02 1167.01C2663.75 1198.03 2688.63 1222.4 2720.67 1240.12C2752.72 1257.85 2790.04 1266.71 2832.65 1266.71C2875.6 1266.71 2912.92 1257.85 2944.62 1240.12C2976.67 1222.4 3001.38 1198.03 3018.76 1167.01C3036.49 1135.99 3045.35 1100.54 3045.35 1060.66V399.542ZM3408.81 1741.2V661.33H3623.56V793.246H3633.27C3642.82 772.112 3656.62 750.637 3674.69 728.822C3693.1 706.665 3716.96 688.258 3746.27 673.601C3775.93 658.603 3812.74 651.104 3856.71 651.104C3913.98 651.104 3966.81 666.102 4015.22 696.098C4063.62 725.754 4102.31 770.578 4131.28 830.571C4160.26 890.223 4174.74 965.044 4174.74 1055.03C4174.74 1142.64 4160.6 1216.6 4132.31 1276.94C4104.35 1336.93 4066.18 1382.44 4017.77 1413.46C3969.71 1444.13 3915.85 1459.47 3856.2 1459.47C3813.93 1459.47 3777.97 1452.49 3748.32 1438.51C3719 1424.53 3694.97 1406.98 3676.22 1385.85C3657.47 1364.37 3643.16 1342.73 3633.27 1320.91H3626.63V1741.2H3408.81ZM3622.02 1054.01C3622.02 1100.71 3628.5 1141.44 3641.45 1176.21C3654.41 1210.98 3673.15 1238.08 3697.7 1257.51C3722.24 1276.6 3752.07 1286.14 3787.18 1286.14C3822.63 1286.14 3852.62 1276.43 3877.16 1257C3901.71 1237.23 3920.28 1209.96 3932.9 1175.19C3945.85 1140.08 3952.33 1099.69 3952.33 1054.01C3952.33 1008.67 3946.02 968.793 3933.41 934.366C3920.8 899.938 3902.22 873.009 3877.68 853.58C3853.13 834.15 3822.97 824.435 3787.18 824.435C3751.72 824.435 3721.73 833.809 3697.19 852.557C3672.98 871.305 3654.41 897.893 3641.45 932.32C3628.5 966.748 3622.02 1007.31 3622.02 1054.01ZM4288.05 399.542H4561.08L4849.46 1103.1H4861.73L5150.11 399.542H5423.14V1446.69H5208.39V765.124H5199.7L4928.71 1441.58H4782.48L4511.49 762.568H4502.8V1446.69H4288.05V399.542ZM5923.37 1462.03C5842.59 1462.03 5773.05 1445.67 5714.76 1412.95C5656.82 1379.88 5612.16 1333.18 5580.8 1272.85C5549.44 1212.17 5533.76 1140.42 5533.76 1057.59C5533.76 976.804 5549.44 905.903 5580.8 844.888C5612.16 783.872 5656.3 736.321 5713.23 702.234C5770.49 668.147 5837.65 651.104 5914.68 651.104C5966.49 651.104 6014.73 659.455 6059.38 676.157C6104.38 692.519 6143.58 717.232 6176.98 750.296C6210.73 783.361 6236.97 824.947 6255.72 875.054C6274.47 924.821 6283.84 983.11 6283.84 1049.92V1109.74H5620.68V974.759H6078.81C6078.81 943.399 6071.99 915.618 6058.36 891.416C6044.72 867.214 6025.81 848.296 6001.6 834.661C5977.74 820.686 5949.96 813.698 5918.26 813.698C5885.2 813.698 5855.88 821.368 5830.32 836.707C5805.09 851.705 5785.32 871.987 5771.01 897.552C5756.69 922.776 5749.36 950.898 5749.02 981.917V1110.25C5749.02 1149.11 5756.18 1182.69 5770.49 1210.98C5785.15 1239.27 5805.77 1261.09 5832.36 1276.43C5858.95 1291.77 5890.48 1299.44 5926.95 1299.44C5951.16 1299.44 5973.31 1296.03 5993.42 1289.21C6013.53 1282.39 6030.75 1272.17 6045.06 1258.53C6059.38 1244.9 6070.29 1228.19 6077.79 1208.42L6279.24 1221.72C6269.02 1270.12 6248.05 1312.39 6216.35 1348.52C6184.99 1384.31 6144.43 1412.26 6094.66 1432.37C6045.24 1452.15 5988.14 1462.03 5923.37 1462.03ZM6747.9 1462.03C6667.12 1462.03 6597.58 1445.67 6539.29 1412.95C6481.34 1379.88 6436.69 1333.18 6405.33 1272.85C6373.97 1212.17 6358.29 1140.42 6358.29 1057.59C6358.29 976.804 6373.97 905.903 6405.33 844.888C6436.69 783.872 6480.83 736.321 6537.76 702.234C6595.02 668.147 6662.17 651.104 6739.21 651.104C6791.02 651.104 6839.26 659.455 6883.91 676.157C6928.9 692.519 6968.1 717.232 7001.51 750.296C7035.25 783.361 7061.5 824.947 7080.25 875.054C7099 924.821 7108.37 983.11 7108.37 1049.92V1109.74H6445.21V974.759H6903.34C6903.34 943.399 6896.52 915.618 6882.89 891.416C6869.25 867.214 6850.33 848.296 6826.13 834.661C6802.27 820.686 6774.49 813.698 6742.79 813.698C6709.72 813.698 6680.41 821.368 6654.84 836.707C6629.62 851.705 6609.85 871.987 6595.53 897.552C6581.22 922.776 6573.89 950.898 6573.55 981.917V1110.25C6573.55 1149.11 6580.71 1182.69 6595.02 1210.98C6609.68 1239.27 6630.3 1261.09 6656.89 1276.43C6683.48 1291.77 6715.01 1299.44 6751.48 1299.44C6775.68 1299.44 6797.84 1296.03 6817.95 1289.21C6838.06 1282.39 6855.28 1272.17 6869.59 1258.53C6883.91 1244.9 6894.82 1228.19 6902.32 1208.42L7103.77 1221.72C7093.54 1270.12 7072.58 1312.39 7040.88 1348.52C7009.52 1384.31 6968.96 1412.26 6919.19 1432.37C6869.76 1452.15 6812.67 1462.03 6747.9 1462.03ZM7632.25 661.33V824.947H7159.3V661.33H7632.25ZM7266.67 473.17H7484.49V1205.36C7484.49 1225.47 7487.55 1241.15 7493.69 1252.4C7499.82 1263.3 7508.35 1270.97 7519.25 1275.4C7530.5 1279.84 7543.46 1282.05 7558.11 1282.05C7568.34 1282.05 7578.57 1281.2 7588.79 1279.5C7599.02 1277.45 7606.86 1275.92 7612.31 1274.89L7646.57 1436.98C7635.66 1440.39 7620.32 1444.31 7600.55 1448.74C7580.78 1453.51 7556.75 1456.41 7528.46 1457.43C7475.96 1459.47 7429.95 1452.49 7390.41 1436.47C7351.21 1420.44 7320.7 1395.56 7298.88 1361.82C7277.07 1328.07 7266.33 1285.46 7266.67 1233.99V473.17Z" fill="white"/>
<defs>
<linearGradient id="paint0_linear_509_4887" x1="192.45" y1="162.513" x2="1608.02" y2="1693.56" gradientUnits="userSpaceOnUse">
<stop stop-color="#47E6A3"/>
<stop offset="0.479167" stop-color="#27CC86"/>
<stop offset="0.989583" stop-color="#1AC27B"/>
</linearGradient>
<linearGradient id="paint1_linear_509_4887" x1="192.45" y1="162.513" x2="1608.02" y2="1693.56" gradientUnits="userSpaceOnUse">
<stop stop-color="#47E6A3"/>
<stop offset="0.479167" stop-color="#27CC86"/>
<stop offset="0.989583" stop-color="#10B981"/>
</linearGradient>
<clipPath id="clip0_509_4887">
<rect width="1493.78" height="1417.18" fill="white" transform="translate(175.74 229.812)"/>
</clipPath>
</defs>
</svg>
