<svg width="895" height="166" viewBox="0 0 895 166" fill="none" xmlns="http://www.w3.org/2000/svg">
<path d="M337.751 3.4527V80.1943C337.751 111.104 318.388 133.665 282.504 133.665C246.265 133.665 227.08 111.104 227.08 80.1943V3.4527H260.654V80.7272C260.654 94.0504 265.45 103.643 282.504 103.643C299.38 103.643 304.177 94.0504 304.177 80.7272V3.4527H337.751ZM454.313 83.2142C454.313 110.926 437.437 132.776 411.678 132.776C401.73 132.776 393.204 129.224 385.743 122.118V165.285H355.366V35.4283H383.256V46.2645C391.072 38.093 400.487 33.6519 411.678 33.6519C437.437 33.6519 454.313 55.8572 454.313 83.2142ZM422.692 83.2142C422.692 68.2922 413.633 61.0089 404.395 61.0089C394.98 61.0089 386.098 68.2922 386.098 83.3918C386.098 98.6691 395.158 105.419 404.395 105.419C413.633 105.419 422.692 98.4914 422.692 83.2142ZM523.973 131L496.616 57.456V131H466.239V3.4527H505.853L538.006 89.9646L569.982 3.4527H609.596V131H579.219V56.5678L551.685 131H523.973ZM670.818 132.599C641.33 132.599 621.611 112.703 621.611 83.0365C621.611 54.4361 642.218 33.6519 670.641 33.6519C702.261 33.6519 723.4 59.4101 717.893 90.8528H653.054C654.653 102.932 660.337 108.972 670.108 108.972C678.634 108.972 684.319 105.419 686.984 98.4914H717.361C711.498 120.341 694.622 132.599 670.818 132.599ZM669.93 56.0349C660.87 56.0349 655.541 61.1865 653.409 71.8451H685.385C685.03 62.2524 678.99 56.0349 669.93 56.0349ZM769.663 132.599C740.174 132.599 720.456 112.703 720.456 83.0365C720.456 54.4361 741.062 33.6519 769.485 33.6519C801.106 33.6519 822.245 59.4101 816.738 90.8528H751.899C753.497 102.932 759.182 108.972 768.952 108.972C777.479 108.972 783.164 105.419 785.828 98.4914H816.205C810.343 120.341 793.467 132.599 769.663 132.599ZM768.775 56.0349C759.715 56.0349 754.386 61.1865 752.254 71.8451H784.23C783.874 62.2524 777.834 56.0349 768.775 56.0349ZM890.337 101.156V127.625C883.586 131.355 877.191 132.776 868.664 132.776C847.17 132.776 834.557 119.986 834.557 98.1361V61.8971H816.793V35.4283H834.557V7.36083H864.934V35.4283H891.047V61.8971H864.934V91.0304C864.934 100.268 868.842 104.531 877.191 104.531C882.165 104.531 886.962 103.288 890.337 101.156Z" fill="white"/>
<path d="M124.916 37.7293C120.923 40.1245 119.63 45.3026 122.025 49.2948C124.42 53.2871 129.598 54.5807 133.59 52.1856L124.916 37.7293ZM171.401 19.6689H179.83C179.83 16.632 178.197 13.8298 175.553 12.3335C172.911 10.8372 169.667 10.8782 167.063 12.4407L171.401 19.6689ZM171.401 115.204L167.063 122.432C169.667 123.994 172.911 124.036 175.553 122.539C178.197 121.043 179.83 118.241 179.83 115.204H171.401ZM133.59 82.687C129.598 80.2919 124.42 81.5856 122.025 85.5778C119.63 89.57 120.923 94.748 124.916 97.1431L133.59 82.687ZM133.59 52.1856L175.738 26.8972L167.063 12.4407L124.916 37.7293L133.59 52.1856ZM162.971 19.6689V115.204H179.83V19.6689H162.971ZM175.738 107.976L133.59 82.687L124.916 97.1431L167.063 122.432L175.738 107.976ZM30.9083 16.8591H103.964V0H30.9083V16.8591ZM118.013 30.9083V103.964H134.873V30.9083H118.013ZM103.964 118.014H30.9083V134.873H103.964V118.014ZM16.8591 103.964V30.9083H0V103.964H16.8591ZM30.9083 118.014C23.1491 118.014 16.8591 111.724 16.8591 103.964H0C0 121.035 13.8382 134.873 30.9083 134.873V118.014ZM118.013 103.964C118.013 111.724 111.724 118.014 103.964 118.014V134.873C121.035 134.873 134.873 121.035 134.873 103.964H118.013ZM103.964 16.8591C111.724 16.8591 118.013 23.1491 118.013 30.9083H134.873C134.873 13.8382 121.035 0 103.964 0V16.8591ZM30.9083 0C13.8382 0 0 13.8382 0 30.9083H16.8591C16.8591 23.1491 23.1491 16.8591 30.9083 16.8591V0Z" fill="white"/>
</svg>
