<svg width="3043" height="1028" viewBox="0 0 3043 1028" fill="none" xmlns="http://www.w3.org/2000/svg">
<path d="M602.045 373.933C582.804 385.477 576.569 410.433 588.113 429.674C599.656 448.915 624.612 455.15 643.853 443.607L602.045 373.933ZM826.085 286.889H866.712C866.712 272.252 858.841 258.747 846.1 251.535C833.365 244.324 817.732 244.521 805.181 252.051L826.085 286.889ZM826.085 747.33L805.181 782.166C817.732 789.696 833.365 789.896 846.1 782.681C858.841 775.471 866.712 761.966 866.712 747.33H826.085ZM643.853 590.612C624.612 579.069 599.656 585.303 588.113 604.544C576.569 623.785 582.804 648.741 602.045 660.285L643.853 590.612ZM643.853 443.607L846.989 321.726L805.181 252.051L602.045 373.933L643.853 443.607ZM785.458 286.889V747.33H866.712V286.889H785.458ZM846.989 712.493L643.853 590.612L602.045 660.285L805.181 782.166L846.989 712.493ZM148.966 273.347H501.068V192.092H148.966V273.347ZM568.78 341.058V693.16H650.034V341.058H568.78ZM501.068 760.872H148.966V842.127H501.068V760.872ZM81.2542 693.16V341.058H0V693.16H81.2542ZM148.966 760.872C111.57 760.872 81.2542 730.559 81.2542 693.16H0C0 775.433 66.6946 842.127 148.966 842.127V760.872ZM568.78 693.16C568.78 730.559 538.466 760.872 501.068 760.872V842.127C583.34 842.127 650.034 775.433 650.034 693.16H568.78ZM501.068 273.347C538.466 273.347 568.78 303.662 568.78 341.058H650.034C650.034 258.787 583.34 192.092 501.068 192.092V273.347ZM148.966 192.092C66.6946 192.092 0 258.787 0 341.058H81.2542C81.2542 303.662 111.57 273.347 148.966 273.347V192.092Z" fill="white"/>
<path d="M1141.79 818V214.752H1375.48C1435.68 214.752 1487.24 226.319 1530.16 249.451C1573.08 272.583 1605.97 306.306 1628.82 350.619C1651.68 394.932 1663.1 449 1663.1 512.823V513.659C1663.1 577.76 1651.68 632.525 1628.82 677.953C1606.25 723.381 1573.5 758.079 1530.58 782.048C1487.66 806.016 1435.96 818 1375.48 818H1141.79ZM1273.9 709.307H1359.18C1395.69 709.307 1426.49 701.921 1451.57 687.15C1476.93 672.379 1496.02 650.64 1508.84 621.934C1521.66 592.949 1528.07 556.997 1528.07 514.077V513.241C1528.07 472.272 1521.38 437.713 1508.01 409.564C1494.91 381.137 1475.68 359.677 1450.32 345.184C1425.23 330.692 1394.85 323.446 1359.18 323.446H1273.9V709.307ZM1920.86 827.197C1874.87 827.197 1835.02 818 1801.29 799.606C1767.85 780.933 1741.93 754.178 1723.54 719.34C1705.42 684.224 1696.36 642.279 1696.36 593.507V592.671C1696.36 544.177 1705.56 502.511 1723.95 467.673C1742.63 432.557 1768.69 405.662 1802.13 386.989C1835.85 368.317 1875.29 358.98 1920.44 358.98C1965.87 358.98 2005.3 368.317 2038.75 386.989C2072.47 405.662 2098.67 432.418 2117.34 467.255C2136.01 502.093 2145.35 543.898 2145.35 592.671V593.507C2145.35 642.558 2136.15 684.502 2117.76 719.34C2099.36 754.178 2073.31 780.933 2039.58 799.606C2006.14 818 1966.56 827.197 1920.86 827.197ZM1921.27 727.701C1940.5 727.701 1957.09 722.545 1971.02 712.233C1984.96 701.642 1995.69 686.314 2003.21 666.248C2011.02 646.181 2014.92 621.934 2014.92 593.507V592.671C2014.92 564.243 2011.02 539.996 2003.21 519.93C1995.41 499.863 1984.4 484.674 1970.19 474.362C1956.25 463.771 1939.67 458.476 1920.44 458.476C1901.77 458.476 1885.32 463.771 1871.11 474.362C1856.89 484.953 1845.89 500.281 1838.08 520.348C1830.28 540.135 1826.38 564.243 1826.38 592.671V593.507C1826.38 621.934 1830.14 646.181 1837.66 666.248C1845.47 686.314 1856.48 701.642 1870.69 712.233C1884.9 722.545 1901.77 727.701 1921.27 727.701ZM2393.49 827.197C2347.5 827.197 2307.79 817.721 2274.34 798.77C2240.9 779.818 2215.12 752.784 2197 717.668C2179.17 682.551 2170.25 640.886 2170.25 592.671V592.252C2170.25 544.316 2179.31 502.929 2197.42 468.091C2215.54 432.975 2241.18 406.08 2274.34 387.408C2307.79 368.456 2347.22 358.98 2392.65 358.98C2433.62 358.98 2469.29 366.644 2499.67 381.973C2530.05 397.301 2553.74 418.204 2570.74 444.681C2588.02 470.878 2597.36 500.56 2598.75 533.725V536.652H2480.02L2479.61 532.889C2476.26 511.708 2467.34 494.011 2452.85 479.797C2438.36 465.583 2418.85 458.476 2394.32 458.476C2375.09 458.476 2358.37 463.911 2344.16 474.78C2330.22 485.371 2319.35 500.699 2311.55 520.766C2304.02 540.832 2300.26 564.94 2300.26 593.089V593.507C2300.26 621.934 2304.02 646.181 2311.55 666.248C2319.35 686.314 2330.22 701.642 2344.16 712.233C2358.37 722.545 2375.23 727.701 2394.74 727.701C2418.71 727.701 2437.94 721.012 2452.43 707.635C2466.92 693.978 2475.98 675.863 2479.61 653.288L2480.44 649.525H2599.17L2598.75 652.034C2597.08 685.478 2587.74 715.438 2570.74 741.915C2553.74 768.113 2530.19 788.876 2500.09 804.204C2469.99 819.533 2434.46 827.197 2393.49 827.197ZM2823.48 827.197C2781.39 827.197 2745.58 821.205 2716.04 809.221C2686.5 797.237 2663.5 780.515 2647.06 759.055C2630.62 737.316 2620.72 712.233 2617.38 683.806L2616.96 680.043H2741.54L2742.37 683.806C2746.28 700.806 2754.78 714.045 2767.88 723.52C2781.25 732.996 2799.79 737.734 2823.48 737.734C2838.53 737.734 2851.35 736.062 2861.94 732.718C2872.53 729.094 2880.61 723.939 2886.18 717.25C2892.04 710.282 2894.96 702.2 2894.96 693.003V692.585C2894.96 681.158 2890.64 671.961 2882 664.993C2873.64 657.747 2858.73 651.755 2837.27 647.017L2759.93 631.131C2730.95 625 2706.56 616.081 2686.77 604.376C2667.27 592.671 2652.49 578.178 2642.46 560.899C2632.71 543.619 2627.83 523.831 2627.83 501.535V501.117C2627.83 472.133 2635.63 447.049 2651.24 425.868C2666.85 404.687 2689 388.244 2717.71 376.538C2746.42 364.833 2780.14 358.98 2818.88 358.98C2859.57 358.98 2893.99 365.53 2922.14 378.628C2950.56 391.449 2972.16 408.728 2986.93 430.467C3001.98 451.927 3009.93 475.895 3010.76 502.372L3011.18 506.134H2893.29L2892.87 502.79C2891.2 487.461 2883.95 474.641 2871.13 464.329C2858.59 453.738 2841.17 448.443 2818.88 448.443C2805.5 448.443 2793.8 450.394 2783.76 454.296C2773.73 457.919 2765.93 463.075 2760.35 469.764C2755.06 476.452 2752.41 484.535 2752.41 494.011V494.429C2752.41 501.675 2754.22 508.224 2757.84 514.077C2761.74 519.651 2768.02 524.668 2776.66 529.127C2785.57 533.307 2797.42 537.07 2812.19 540.414L2889.53 556.3C2936.63 566.333 2970.63 581.104 2991.53 600.614C3012.44 620.123 3022.89 646.46 3022.89 679.625V680.043C3022.89 709.585 3014.39 735.505 2997.39 757.801C2980.39 779.818 2956.97 796.958 2927.15 809.221C2897.33 821.205 2862.77 827.197 2823.48 827.197Z" fill="white"/>
<path d="M602.045 373.933C582.804 385.477 576.569 410.433 588.113 429.674C599.656 448.915 624.612 455.15 643.853 443.607L602.045 373.933ZM826.085 286.889H866.712C866.712 272.252 858.841 258.747 846.1 251.535C833.365 244.324 817.732 244.521 805.181 252.051L826.085 286.889ZM826.085 747.33L805.181 782.166C817.732 789.696 833.365 789.896 846.1 782.681C858.841 775.471 866.712 761.966 866.712 747.33H826.085ZM643.853 590.612C624.612 579.069 599.656 585.303 588.113 604.544C576.569 623.785 582.804 648.741 602.045 660.285L643.853 590.612ZM643.853 443.607L846.989 321.726L805.181 252.051L602.045 373.933L643.853 443.607ZM785.458 286.889V747.33H866.712V286.889H785.458ZM846.989 712.493L643.853 590.612L602.045 660.285L805.181 782.166L846.989 712.493ZM148.966 273.347H501.068V192.092H148.966V273.347ZM568.78 341.058V693.16H650.034V341.058H568.78ZM501.068 760.872H148.966V842.127H501.068V760.872ZM81.2542 693.16V341.058H0V693.16H81.2542ZM148.966 760.872C111.57 760.872 81.2542 730.559 81.2542 693.16H0C0 775.433 66.6946 842.127 148.966 842.127V760.872ZM568.78 693.16C568.78 730.559 538.466 760.872 501.068 760.872V842.127C583.34 842.127 650.034 775.433 650.034 693.16H568.78ZM501.068 273.347C538.466 273.347 568.78 303.662 568.78 341.058H650.034C650.034 258.787 583.34 192.092 501.068 192.092V273.347ZM148.966 192.092C66.6946 192.092 0 258.787 0 341.058H81.2542C81.2542 303.662 111.57 273.347 148.966 273.347V192.092Z" fill="white"/>
</svg>
