<svg width="1379" height="1379" viewBox="0 0 1379 1379" fill="none" xmlns="http://www.w3.org/2000/svg">
<rect width="1379" height="1379" rx="689.5" fill="#374CF8"/>
<path d="M859.045 546.841C839.804 558.385 833.569 583.341 845.113 602.582C856.656 621.823 881.612 628.058 900.853 616.514L859.045 546.841ZM1083.08 459.797H1123.71C1123.71 445.16 1115.84 431.655 1103.1 424.443C1090.37 417.231 1074.73 417.429 1062.18 424.959L1083.08 459.797ZM1083.08 920.238L1062.18 955.074C1074.73 962.604 1090.37 962.804 1103.1 955.589C1115.84 948.379 1123.71 934.874 1123.71 920.238H1083.08ZM900.853 763.52C881.612 751.976 856.656 758.211 845.113 777.452C833.569 796.693 839.804 821.649 859.045 833.193L900.853 763.52ZM900.853 616.514L1103.99 494.634L1062.18 424.959L859.045 546.841L900.853 616.514ZM1042.46 459.797V920.238H1123.71V459.797H1042.46ZM1103.99 885.401L900.853 763.52L859.045 833.193L1062.18 955.074L1103.99 885.401ZM405.966 446.254H758.068V365H405.966V446.254ZM825.78 513.966V866.068H907.034V513.966H825.78ZM758.068 933.78H405.966V1015.03H758.068V933.78ZM338.254 866.068V513.966H257V866.068H338.254ZM405.966 933.78C368.57 933.78 338.254 903.467 338.254 866.068H257C257 948.341 323.695 1015.03 405.966 1015.03V933.78ZM825.78 866.068C825.78 903.467 795.466 933.78 758.068 933.78V1015.03C840.34 1015.03 907.034 948.341 907.034 866.068H825.78ZM758.068 446.254C795.466 446.254 825.78 476.57 825.78 513.966H907.034C907.034 431.695 840.34 365 758.068 365V446.254ZM405.966 365C323.695 365 257 431.695 257 513.966H338.254C338.254 476.57 368.57 446.254 405.966 446.254V365Z" fill="white"/>
<path d="M859.045 546.841C839.804 558.385 833.569 583.341 845.113 602.582C856.656 621.823 881.612 628.058 900.853 616.514L859.045 546.841ZM1083.08 459.797H1123.71C1123.71 445.16 1115.84 431.655 1103.1 424.443C1090.37 417.231 1074.73 417.429 1062.18 424.959L1083.08 459.797ZM1083.08 920.238L1062.18 955.074C1074.73 962.604 1090.37 962.804 1103.1 955.589C1115.84 948.379 1123.71 934.874 1123.71 920.238H1083.08ZM900.853 763.52C881.612 751.976 856.656 758.211 845.113 777.452C833.569 796.693 839.804 821.649 859.045 833.193L900.853 763.52ZM900.853 616.514L1103.99 494.634L1062.18 424.959L859.045 546.841L900.853 616.514ZM1042.46 459.797V920.238H1123.71V459.797H1042.46ZM1103.99 885.401L900.853 763.52L859.045 833.193L1062.18 955.074L1103.99 885.401ZM405.966 446.254H758.068V365H405.966V446.254ZM825.78 513.966V866.068H907.034V513.966H825.78ZM758.068 933.78H405.966V1015.03H758.068V933.78ZM338.254 866.068V513.966H257V866.068H338.254ZM405.966 933.78C368.57 933.78 338.254 903.467 338.254 866.068H257C257 948.341 323.695 1015.03 405.966 1015.03V933.78ZM825.78 866.068C825.78 903.467 795.466 933.78 758.068 933.78V1015.03C840.34 1015.03 907.034 948.341 907.034 866.068H825.78ZM758.068 446.254C795.466 446.254 825.78 476.57 825.78 513.966H907.034C907.034 431.695 840.34 365 758.068 365V446.254ZM405.966 365C323.695 365 257 431.695 257 513.966H338.254C338.254 476.57 368.57 446.254 405.966 446.254V365Z" fill="white"/>
</svg>
