<svg width="867" height="651" viewBox="0 0 867 651" fill="none" xmlns="http://www.w3.org/2000/svg">
<rect x="639.863" y="154.973" width="162.74" height="334.11" fill="#EFEDFC"/>
<rect x="75.2051" y="60.0413" width="522.739" height="533.836" fill="#EFEDFC"/>
<path d="M602.045 181.933C582.804 193.477 576.569 218.434 588.113 237.675C599.656 256.916 624.612 263.151 643.853 251.607L602.045 181.933ZM826.085 94.8892H866.712C866.712 80.2526 858.841 66.747 846.1 59.5355C833.365 52.3239 817.732 52.5211 805.181 60.0517L826.085 94.8892ZM826.085 555.33L805.181 590.167C817.732 597.696 833.365 597.896 846.1 590.681C858.841 583.471 866.712 569.967 866.712 555.33H826.085ZM643.853 398.612C624.612 387.069 599.656 393.304 588.113 412.545C576.569 431.786 582.804 456.742 602.045 468.285L643.853 398.612ZM643.853 251.607L846.989 129.727L805.181 60.0517L602.045 181.933L643.853 251.607ZM785.458 94.8892V555.33H866.712V94.8892H785.458ZM846.989 520.494L643.853 398.612L602.045 468.285L805.181 590.167L846.989 520.494ZM148.966 81.3468H501.068V0.0925293H148.966V81.3468ZM568.78 149.059V501.161H650.034V149.059H568.78ZM501.068 568.872H148.966V650.127H501.068V568.872ZM81.2542 501.161V149.059H0V501.161H81.2542ZM148.966 568.872C111.57 568.872 81.2542 538.559 81.2542 501.161H0C0 583.433 66.6946 650.127 148.966 650.127V568.872ZM568.78 501.161C568.78 538.559 538.466 568.872 501.068 568.872V650.127C583.34 650.127 650.034 583.433 650.034 501.161H568.78ZM501.068 81.3468C538.466 81.3468 568.78 111.662 568.78 149.059H650.034C650.034 66.7871 583.34 0.0925293 501.068 0.0925293V81.3468ZM148.966 0.0925293C66.6946 0.0925293 0 66.7871 0 149.059H81.2542C81.2542 111.662 111.57 81.3468 148.966 81.3468V0.0925293Z" fill="#5147F9"/>
</svg>
