<svg width="4117" height="1028" viewBox="0 0 4117 1028" fill="none" xmlns="http://www.w3.org/2000/svg">
<path d="M1394.63 828.451C1343.08 828.451 1298.2 819.254 1260.02 800.86C1221.84 782.187 1192.3 755.989 1171.4 722.266C1150.77 688.544 1140.46 649.386 1140.46 604.794V214.752H1272.56V592.671C1272.56 618.032 1277.3 640.05 1286.78 658.723C1296.53 677.117 1310.47 691.47 1328.58 701.782C1346.7 711.815 1368.72 716.832 1394.63 716.832C1420.83 716.832 1442.99 711.815 1461.1 701.782C1479.22 691.47 1493.02 677.117 1502.49 658.723C1511.97 640.05 1516.71 618.032 1516.71 592.671V214.752H1648.81V604.794C1648.81 649.386 1638.36 688.544 1617.46 722.266C1596.83 755.71 1567.57 781.769 1529.67 800.442C1491.76 819.115 1446.75 828.451 1394.63 828.451ZM1715.93 964.318V368.177H1843.85V447.189H1846.78C1854.86 428.795 1865.45 413.048 1878.55 399.949C1891.93 386.85 1907.4 376.817 1924.96 369.849C1942.79 362.603 1962.3 358.98 1983.48 358.98C2021.39 358.98 2053.99 368.317 2081.31 386.989C2108.62 405.384 2129.52 432.139 2144.02 467.255C2158.79 502.093 2166.17 544.037 2166.17 593.089V593.507C2166.17 642.279 2158.93 684.084 2144.43 718.922C2129.94 753.76 2109.18 780.515 2082.14 799.188C2055.11 817.861 2022.78 827.197 1985.16 827.197C1963.7 827.197 1943.91 823.713 1925.79 816.746C1907.96 809.778 1892.21 799.884 1878.55 787.064C1865.18 774.244 1854.45 758.915 1846.36 741.079H1843.85V964.318H1715.93ZM1940.01 721.848C1959.79 721.848 1976.79 716.692 1991.01 706.38C2005.5 695.79 2016.65 680.879 2024.45 661.649C2032.26 642.419 2036.16 619.705 2036.16 593.507V593.089C2036.16 566.333 2032.12 543.341 2024.03 524.11C2016.23 504.88 2005.08 490.109 1990.59 479.797C1976.38 469.485 1959.52 464.329 1940.01 464.329C1921.05 464.329 1904.19 469.624 1889.42 480.215C1874.93 490.527 1863.5 505.298 1855.14 524.528C1847.06 543.759 1843.02 566.612 1843.02 593.089V593.507C1843.02 619.705 1847.06 642.419 1855.14 661.649C1863.5 680.879 1874.93 695.79 1889.42 706.38C1903.91 716.692 1920.78 721.848 1940.01 721.848ZM2217.83 818V214.752H2370.83L2537.22 639.492H2540.14L2706.53 214.752H2859.53V818H2742.06V417.089H2681.03L2812.71 231.475L2579.02 818H2497.92L2264.65 231.475L2396.33 417.089H2335.3V818H2217.83ZM3134.01 827.197C3087.74 827.197 3047.89 817.861 3014.45 799.188C2981.28 780.236 2955.78 753.341 2937.94 718.504C2920.11 683.388 2911.19 641.861 2911.19 593.925V593.507C2911.19 545.57 2920.11 504.044 2937.94 468.927C2955.78 433.811 2981 406.777 3013.61 387.826C3046.22 368.595 3084.68 358.98 3128.99 358.98C3173.3 358.98 3211.63 368.317 3243.96 386.989C3276.28 405.662 3301.23 431.86 3318.79 465.583C3336.34 499.306 3345.12 538.881 3345.12 584.31V623.188H2973.89V544.177H3284.92L3224.31 618.172V568.842C3224.31 543.48 3220.41 522.299 3212.6 505.298C3204.8 488.018 3193.93 475.059 3179.99 466.419C3166.06 457.779 3149.89 453.46 3131.5 453.46C3112.83 453.46 3096.38 457.919 3082.17 466.837C3068.23 475.756 3057.23 488.855 3049.14 506.134C3041.06 523.413 3037.02 544.316 3037.02 568.842V618.59C3037.02 642.558 3041.06 663.042 3049.14 680.043C3057.23 697.044 3068.65 710.143 3083.42 719.34C3098.19 728.537 3115.89 733.136 3136.52 733.136C3153.24 733.136 3167.59 730.488 3179.58 725.193C3191.56 719.897 3201.17 713.348 3208.42 705.544C3215.95 697.741 3221.1 689.798 3223.89 681.715L3224.72 679.207H3341.36L3340.53 684.224C3336.9 700.388 3330.21 716.971 3320.46 733.972C3310.98 750.694 3297.88 766.162 3281.16 780.375C3264.72 794.589 3244.23 806.016 3219.71 814.656C3195.46 823.017 3166.89 827.197 3134.01 827.197ZM3592.84 827.197C3546.58 827.197 3506.72 817.861 3473.28 799.188C3440.12 780.236 3414.61 753.341 3396.78 718.504C3378.94 683.388 3370.02 641.861 3370.02 593.925V593.507C3370.02 545.57 3378.94 504.044 3396.78 468.927C3414.61 433.811 3439.84 406.777 3472.44 387.826C3505.05 368.595 3543.51 358.98 3587.83 358.98C3632.14 358.98 3670.46 368.317 3702.79 386.989C3735.12 405.662 3760.06 431.86 3777.62 465.583C3795.18 499.306 3803.96 538.881 3803.96 584.31V623.188H3432.73V544.177H3743.76L3683.14 618.172V568.842C3683.14 543.48 3679.24 522.299 3671.44 505.298C3663.63 488.018 3652.76 475.059 3638.83 466.419C3624.89 457.779 3608.73 453.46 3590.33 453.46C3571.66 453.46 3555.22 457.919 3541 466.837C3527.07 475.756 3516.06 488.855 3507.98 506.134C3499.9 523.413 3495.86 544.316 3495.86 568.842V618.59C3495.86 642.558 3499.9 663.042 3507.98 680.043C3516.06 697.044 3527.49 710.143 3542.26 719.34C3557.03 728.537 3574.73 733.136 3595.35 733.136C3612.07 733.136 3626.43 730.488 3638.41 725.193C3650.39 719.897 3660.01 713.348 3667.26 705.544C3674.78 697.741 3679.94 689.798 3682.72 681.715L3683.56 679.207H3800.2L3799.36 684.224C3795.74 700.388 3789.05 716.971 3779.29 733.972C3769.82 750.694 3756.72 766.162 3740 780.375C3723.55 794.589 3703.07 806.016 3678.54 814.656C3654.3 823.017 3625.73 827.197 3592.84 827.197ZM4027.01 827.197C3976.29 827.197 3938.66 816.746 3914.14 795.843C3889.89 774.662 3877.77 739.685 3877.77 690.913V463.911H3815.48V368.177H3877.77V259.902H4006.53V368.177H4088.47V463.911H4006.53V676.281C4006.53 696.905 4011.13 711.258 4020.32 719.34C4029.52 727.422 4043.32 731.463 4061.71 731.463C4067.29 731.463 4072.16 731.324 4076.34 731.045C4080.52 730.488 4084.56 730.07 4088.47 729.791V822.599C4081.5 823.713 4072.86 824.689 4062.55 825.525C4052.24 826.64 4040.39 827.197 4027.01 827.197Z" fill="#181544"/>
<rect x="639.863" y="343.973" width="162.74" height="334.11" fill="#EFEDFC"/>
<rect x="75.2051" y="249.041" width="522.739" height="533.836" fill="#EFEDFC"/>
<path d="M602.045 370.933C582.804 382.477 576.569 407.434 588.113 426.675C599.656 445.916 624.612 452.151 643.853 440.607L602.045 370.933ZM826.085 283.889H866.712C866.712 269.253 858.841 255.747 846.1 248.536C833.365 241.324 817.732 241.521 805.181 249.052L826.085 283.889ZM826.085 744.33L805.181 779.167C817.732 786.696 833.365 786.897 846.1 779.681C858.841 772.471 866.712 758.967 866.712 744.33H826.085ZM643.853 587.613C624.612 576.069 599.656 582.304 588.113 601.545C576.569 620.786 582.804 645.742 602.045 657.285L643.853 587.613ZM643.853 440.607L846.989 318.727L805.181 249.052L602.045 370.933L643.853 440.607ZM785.458 283.889V744.33H866.712V283.889H785.458ZM846.989 709.494L643.853 587.613L602.045 657.285L805.181 779.167L846.989 709.494ZM148.966 270.347H501.068V189.093H148.966V270.347ZM568.78 338.059V690.161H650.034V338.059H568.78ZM501.068 757.873H148.966V839.127H501.068V757.873ZM81.2542 690.161V338.059H0V690.161H81.2542ZM148.966 757.873C111.57 757.873 81.2542 727.56 81.2542 690.161H0C0 772.434 66.6946 839.127 148.966 839.127V757.873ZM568.78 690.161C568.78 727.56 538.466 757.873 501.068 757.873V839.127C583.34 839.127 650.034 772.434 650.034 690.161H568.78ZM501.068 270.347C538.466 270.347 568.78 300.662 568.78 338.059H650.034C650.034 255.787 583.34 189.093 501.068 189.093V270.347ZM148.966 189.093C66.6946 189.093 0 255.787 0 338.059H81.2542C81.2542 300.662 111.57 270.347 148.966 270.347V189.093Z" fill="#5147F9"/>
<path d="M1394.63 828.451C1343.08 828.451 1298.2 819.254 1260.02 800.86C1221.84 782.187 1192.3 755.989 1171.4 722.266C1150.77 688.544 1140.46 649.386 1140.46 604.794V214.752H1272.56V592.671C1272.56 618.032 1277.3 640.05 1286.78 658.723C1296.53 677.117 1310.47 691.47 1328.58 701.782C1346.7 711.815 1368.72 716.832 1394.63 716.832C1420.83 716.832 1442.99 711.815 1461.1 701.782C1479.22 691.47 1493.02 677.117 1502.49 658.723C1511.97 640.05 1516.71 618.032 1516.71 592.671V214.752H1648.81V604.794C1648.81 649.386 1638.36 688.544 1617.46 722.266C1596.83 755.71 1567.57 781.769 1529.67 800.442C1491.76 819.115 1446.75 828.451 1394.63 828.451ZM1715.93 964.318V368.177H1843.85V447.189H1846.78C1854.86 428.795 1865.45 413.048 1878.55 399.949C1891.93 386.85 1907.4 376.817 1924.96 369.849C1942.79 362.603 1962.3 358.98 1983.48 358.98C2021.39 358.98 2053.99 368.317 2081.31 386.989C2108.62 405.384 2129.52 432.139 2144.02 467.255C2158.79 502.093 2166.17 544.037 2166.17 593.089V593.507C2166.17 642.279 2158.93 684.084 2144.43 718.922C2129.94 753.76 2109.18 780.515 2082.14 799.188C2055.11 817.861 2022.78 827.197 1985.16 827.197C1963.7 827.197 1943.91 823.713 1925.79 816.746C1907.96 809.778 1892.21 799.884 1878.55 787.064C1865.18 774.244 1854.45 758.915 1846.36 741.079H1843.85V964.318H1715.93ZM1940.01 721.848C1959.79 721.848 1976.79 716.692 1991.01 706.38C2005.5 695.79 2016.65 680.879 2024.45 661.649C2032.26 642.419 2036.16 619.705 2036.16 593.507V593.089C2036.16 566.333 2032.12 543.341 2024.03 524.11C2016.23 504.88 2005.08 490.109 1990.59 479.797C1976.38 469.485 1959.52 464.329 1940.01 464.329C1921.05 464.329 1904.19 469.624 1889.42 480.215C1874.93 490.527 1863.5 505.298 1855.14 524.528C1847.06 543.759 1843.02 566.612 1843.02 593.089V593.507C1843.02 619.705 1847.06 642.419 1855.14 661.649C1863.5 680.879 1874.93 695.79 1889.42 706.38C1903.91 716.692 1920.78 721.848 1940.01 721.848ZM2217.83 818V214.752H2370.83L2537.22 639.492H2540.14L2706.53 214.752H2859.53V818H2742.06V417.089H2681.03L2812.71 231.475L2579.02 818H2497.92L2264.65 231.475L2396.33 417.089H2335.3V818H2217.83ZM3134.01 827.197C3087.74 827.197 3047.89 817.861 3014.45 799.188C2981.28 780.236 2955.78 753.341 2937.94 718.504C2920.11 683.388 2911.19 641.861 2911.19 593.925V593.507C2911.19 545.57 2920.11 504.044 2937.94 468.927C2955.78 433.811 2981 406.777 3013.61 387.826C3046.22 368.595 3084.68 358.98 3128.99 358.98C3173.3 358.98 3211.63 368.317 3243.96 386.989C3276.28 405.662 3301.23 431.86 3318.79 465.583C3336.34 499.306 3345.12 538.881 3345.12 584.31V623.188H2973.89V544.177H3284.92L3224.31 618.172V568.842C3224.31 543.48 3220.41 522.299 3212.6 505.298C3204.8 488.018 3193.93 475.059 3179.99 466.419C3166.06 457.779 3149.89 453.46 3131.5 453.46C3112.83 453.46 3096.38 457.919 3082.17 466.837C3068.23 475.756 3057.23 488.855 3049.14 506.134C3041.06 523.413 3037.02 544.316 3037.02 568.842V618.59C3037.02 642.558 3041.06 663.042 3049.14 680.043C3057.23 697.044 3068.65 710.143 3083.42 719.34C3098.19 728.537 3115.89 733.136 3136.52 733.136C3153.24 733.136 3167.59 730.488 3179.58 725.193C3191.56 719.897 3201.17 713.348 3208.42 705.544C3215.95 697.741 3221.1 689.798 3223.89 681.715L3224.72 679.207H3341.36L3340.53 684.224C3336.9 700.388 3330.21 716.971 3320.46 733.972C3310.98 750.694 3297.88 766.162 3281.16 780.375C3264.72 794.589 3244.23 806.016 3219.71 814.656C3195.46 823.017 3166.89 827.197 3134.01 827.197ZM3592.84 827.197C3546.58 827.197 3506.72 817.861 3473.28 799.188C3440.12 780.236 3414.61 753.341 3396.78 718.504C3378.94 683.388 3370.02 641.861 3370.02 593.925V593.507C3370.02 545.57 3378.94 504.044 3396.78 468.927C3414.61 433.811 3439.84 406.777 3472.44 387.826C3505.05 368.595 3543.51 358.98 3587.83 358.98C3632.14 358.98 3670.46 368.317 3702.79 386.989C3735.12 405.662 3760.06 431.86 3777.62 465.583C3795.18 499.306 3803.96 538.881 3803.96 584.31V623.188H3432.73V544.177H3743.76L3683.14 618.172V568.842C3683.14 543.48 3679.24 522.299 3671.44 505.298C3663.63 488.018 3652.76 475.059 3638.83 466.419C3624.89 457.779 3608.73 453.46 3590.33 453.46C3571.66 453.46 3555.22 457.919 3541 466.837C3527.07 475.756 3516.06 488.855 3507.98 506.134C3499.9 523.413 3495.86 544.316 3495.86 568.842V618.59C3495.86 642.558 3499.9 663.042 3507.98 680.043C3516.06 697.044 3527.49 710.143 3542.26 719.34C3557.03 728.537 3574.73 733.136 3595.35 733.136C3612.07 733.136 3626.43 730.488 3638.41 725.193C3650.39 719.897 3660.01 713.348 3667.26 705.544C3674.78 697.741 3679.94 689.798 3682.72 681.715L3683.56 679.207H3800.2L3799.36 684.224C3795.74 700.388 3789.05 716.971 3779.29 733.972C3769.82 750.694 3756.72 766.162 3740 780.375C3723.55 794.589 3703.07 806.016 3678.54 814.656C3654.3 823.017 3625.73 827.197 3592.84 827.197ZM4027.01 827.197C3976.29 827.197 3938.66 816.746 3914.14 795.843C3889.89 774.662 3877.77 739.685 3877.77 690.913V463.911H3815.48V368.177H3877.77V259.902H4006.53V368.177H4088.47V463.911H4006.53V676.281C4006.53 696.905 4011.13 711.258 4020.32 719.34C4029.52 727.422 4043.32 731.463 4061.71 731.463C4067.29 731.463 4072.16 731.324 4076.34 731.045C4080.52 730.488 4084.56 730.07 4088.47 729.791V822.599C4081.5 823.713 4072.86 824.689 4062.55 825.525C4052.24 826.64 4040.39 827.197 4027.01 827.197Z" fill="#181544"/>
<rect x="639.863" y="343.973" width="162.74" height="334.11" fill="#EFEDFC"/>
<rect x="75.2051" y="249.041" width="522.739" height="533.836" fill="#EFEDFC"/>
<path d="M602.045 370.933C582.804 382.477 576.569 407.434 588.113 426.675C599.656 445.916 624.612 452.151 643.853 440.607L602.045 370.933ZM826.085 283.889H866.712C866.712 269.253 858.841 255.747 846.1 248.536C833.365 241.324 817.732 241.521 805.181 249.052L826.085 283.889ZM826.085 744.33L805.181 779.167C817.732 786.696 833.365 786.897 846.1 779.681C858.841 772.471 866.712 758.967 866.712 744.33H826.085ZM643.853 587.613C624.612 576.069 599.656 582.304 588.113 601.545C576.569 620.786 582.804 645.742 602.045 657.285L643.853 587.613ZM643.853 440.607L846.989 318.727L805.181 249.052L602.045 370.933L643.853 440.607ZM785.458 283.889V744.33H866.712V283.889H785.458ZM846.989 709.494L643.853 587.613L602.045 657.285L805.181 779.167L846.989 709.494ZM148.966 270.347H501.068V189.093H148.966V270.347ZM568.78 338.059V690.161H650.034V338.059H568.78ZM501.068 757.873H148.966V839.127H501.068V757.873ZM81.2542 690.161V338.059H0V690.161H81.2542ZM148.966 757.873C111.57 757.873 81.2542 727.56 81.2542 690.161H0C0 772.434 66.6946 839.127 148.966 839.127V757.873ZM568.78 690.161C568.78 727.56 538.466 757.873 501.068 757.873V839.127C583.34 839.127 650.034 772.434 650.034 690.161H568.78ZM501.068 270.347C538.466 270.347 568.78 300.662 568.78 338.059H650.034C650.034 255.787 583.34 189.093 501.068 189.093V270.347ZM148.966 189.093C66.6946 189.093 0 255.787 0 338.059H81.2542C81.2542 300.662 111.57 270.347 148.966 270.347V189.093Z" fill="#5147F9"/>
</svg>