<svg width="2992" height="820" viewBox="0 0 2992 820" fill="none" xmlns="http://www.w3.org/2000/svg">
    <rect width="820" height="820" rx="250" fill="url(#paint0_linear_115_4834)" />
    <g clip-path="url(#clip0_115_4834)">
        <path d="M526.106 361.611L628.152 304.433C632.362 302.437 637.041 301.495 641.743 301.695C646.445 301.896 651.015 303.234 655.02 305.581C659.024 307.928 662.33 311.207 664.624 315.107C666.917 319.007 668.122 323.398 668.125 327.863V505.136C668.122 509.602 666.917 513.993 664.624 517.893C662.33 521.792 659.024 525.071 655.02 527.419C651.015 529.766 646.445 531.103 641.743 531.304C637.041 531.505 632.362 530.563 628.152 528.567L526.106 468.422V361.611Z" fill="white" stroke="white" stroke-width="20" stroke-linecap="round" stroke-linejoin="round" />
        <path d="M428.833 262H208.167C177.699 262 153 284.983 153 313.333V518.667C153 547.017 177.699 570 208.167 570H428.833C459.301 570 484 547.017 484 518.667V313.333C484 284.983 459.301 262 428.833 262Z" fill="white" stroke="white" stroke-width="20" stroke-linecap="round" stroke-linejoin="round" />
    </g>
    <path d="M1265.09 232.364H1330.97V469.935C1330.97 495.976 1324.81 518.881 1312.5 538.649C1300.31 558.417 1283.14 573.865 1261.01 584.991C1238.87 596 1213.01 601.504 1183.42 601.504C1153.71 601.504 1127.78 596 1105.65 584.991C1083.51 573.865 1066.35 558.417 1054.15 538.649C1041.96 518.881 1035.87 495.976 1035.87 469.935V232.364H1101.74V464.43C1101.74 479.582 1105.05 493.076 1111.68 504.913C1118.43 516.75 1127.9 526.043 1140.09 532.79C1152.28 539.419 1166.73 542.733 1183.42 542.733C1200.11 542.733 1214.55 539.419 1226.74 532.79C1239.05 526.043 1248.52 516.75 1255.15 504.913C1261.78 493.076 1265.09 479.582 1265.09 464.43V232.364ZM1399.72 698.273V323.273H1462.94V368.372H1466.66C1469.98 361.743 1474.65 354.7 1480.69 347.243C1486.73 339.667 1494.9 333.216 1505.19 327.889C1515.49 322.444 1528.63 319.722 1544.61 319.722C1565.68 319.722 1584.68 325.107 1601.61 335.879C1618.65 346.533 1632.15 362.335 1642.09 383.287C1652.15 404.12 1657.18 429.688 1657.18 459.991C1657.18 489.939 1652.27 515.389 1642.44 536.341C1632.62 557.293 1619.24 573.273 1602.32 584.281C1585.39 595.29 1566.21 600.794 1544.79 600.794C1529.16 600.794 1516.2 598.19 1505.9 592.982C1495.61 587.773 1487.32 581.5 1481.05 574.161C1474.89 566.703 1470.1 559.66 1466.66 553.031H1464V698.273H1399.72ZM1462.76 459.636C1462.76 477.274 1465.24 492.721 1470.21 505.979C1475.3 519.236 1482.58 529.594 1492.05 537.051C1501.64 544.39 1513.24 548.06 1526.86 548.06C1541.06 548.06 1552.96 544.272 1562.54 536.696C1572.13 529.002 1579.35 518.526 1584.21 505.268C1589.18 491.893 1591.66 476.682 1591.66 459.636C1591.66 442.709 1589.24 427.676 1584.38 414.537C1579.53 401.398 1572.31 391.099 1562.72 383.642C1553.13 376.185 1541.18 372.456 1526.86 372.456C1513.12 372.456 1501.46 376.066 1491.88 383.287C1482.29 390.508 1475.01 400.628 1470.04 413.649C1465.18 426.67 1462.76 441.999 1462.76 459.636ZM1715.07 232.364H1795.68L1903.63 495.858H1907.89L2015.85 232.364H2096.46V596H2033.25V346.178H2029.87L1929.38 594.935H1882.15L1781.65 345.645H1778.28V596H1715.07V232.364ZM2286.09 601.327C2258.74 601.327 2235.13 595.645 2215.24 584.281C2195.48 572.799 2180.26 556.582 2169.61 535.631C2158.96 514.561 2153.63 489.762 2153.63 461.234C2153.63 433.18 2158.96 408.559 2169.61 387.371C2180.38 366.064 2195.42 349.492 2214.71 337.655C2234.01 325.699 2256.67 319.722 2282.71 319.722C2299.52 319.722 2315.39 322.444 2330.3 327.889C2345.33 333.216 2358.59 341.502 2370.07 352.747C2381.67 363.992 2390.79 378.315 2397.42 395.716C2404.05 412.998 2407.36 433.595 2407.36 457.506V477.214H2183.82V433.891H2345.75C2345.63 421.58 2342.97 410.631 2337.76 401.043C2332.55 391.336 2325.27 383.701 2315.92 378.138C2306.69 372.574 2295.91 369.793 2283.6 369.793C2270.46 369.793 2258.92 372.989 2248.98 379.381C2239.04 385.654 2231.28 393.94 2225.72 404.239C2220.27 414.419 2217.49 425.605 2217.37 437.797V475.616C2217.37 491.478 2220.27 505.091 2226.07 516.455C2231.87 527.7 2239.98 536.341 2250.4 542.378C2260.82 548.296 2273.01 551.256 2286.98 551.256C2296.33 551.256 2304.79 549.954 2312.37 547.349C2319.94 544.627 2326.51 540.661 2332.08 535.453C2337.64 530.245 2341.84 523.794 2344.68 516.099L2404.7 522.847C2400.91 538.708 2393.69 552.558 2383.03 564.395C2372.5 576.114 2359.01 585.228 2342.55 591.739C2326.1 598.131 2307.28 601.327 2286.09 601.327ZM2582.48 601.327C2555.13 601.327 2531.52 595.645 2511.63 584.281C2491.86 572.799 2476.65 556.582 2466 535.631C2455.34 514.561 2450.02 489.762 2450.02 461.234C2450.02 433.18 2455.34 408.559 2466 387.371C2476.77 366.064 2491.8 349.492 2511.1 337.655C2530.39 325.699 2553.06 319.722 2579.1 319.722C2595.91 319.722 2611.77 322.444 2626.69 327.889C2641.72 333.216 2654.98 341.502 2666.46 352.747C2678.06 363.992 2687.17 378.315 2693.8 395.716C2700.43 412.998 2703.75 433.595 2703.75 457.506V477.214H2480.2V433.891H2642.13C2642.02 421.58 2639.35 410.631 2634.14 401.043C2628.94 391.336 2621.66 383.701 2612.3 378.138C2603.07 372.574 2592.3 369.793 2579.99 369.793C2566.85 369.793 2555.31 372.989 2545.37 379.381C2535.42 385.654 2527.67 393.94 2522.11 404.239C2516.66 414.419 2513.88 425.605 2513.76 437.797V475.616C2513.76 491.478 2516.66 505.091 2522.46 516.455C2528.26 527.7 2536.37 536.341 2546.79 542.378C2557.2 548.296 2569.4 551.256 2583.36 551.256C2592.71 551.256 2601.18 549.954 2608.75 547.349C2616.33 544.627 2622.9 540.661 2628.46 535.453C2634.03 530.245 2638.23 523.794 2641.07 516.099L2701.08 522.847C2697.3 538.708 2690.07 552.558 2679.42 564.395C2668.89 576.114 2655.39 585.228 2638.94 591.739C2622.48 598.131 2603.66 601.327 2582.48 601.327ZM2894.31 323.273V372.989H2737.53V323.273H2894.31ZM2776.23 257.932H2840.51V513.969C2840.51 522.61 2841.81 529.239 2844.42 533.855C2847.14 538.353 2850.69 541.431 2855.07 543.088C2859.45 544.745 2864.3 545.574 2869.63 545.574C2873.65 545.574 2877.32 545.278 2880.64 544.686C2884.07 544.094 2886.67 543.562 2888.45 543.088L2899.28 593.337C2895.85 594.52 2890.94 595.822 2884.54 597.243C2878.27 598.663 2870.58 599.492 2861.46 599.729C2845.36 600.202 2830.86 597.776 2817.96 592.449C2805.06 587.004 2794.82 578.599 2787.24 567.236C2779.79 555.872 2776.12 541.668 2776.23 524.622V257.932Z" fill="black" />
    <defs>
        <linearGradient id="paint0_linear_115_4834" x1="85.4167" y1="72.1296" x2="713.704" y2="751.667" gradientUnits="userSpaceOnUse">
            <stop stop-color="#47E6A3" />
            <stop offset="0.479167" stop-color="#27CC86" />
            <stop offset="0.989583" stop-color="#1AC27B" />
        </linearGradient>
        <clipPath id="clip0_115_4834">
            <rect width="663" height="629" fill="white" transform="translate(78 102)" />
        </clipPath>
    </defs>
</svg>
    